<?xml version="1.0" encoding="UTF-8"?>
<svg id="Layer_1" data-name="Layer 1" xmlns="http://www.w3.org/2000/svg" xmlns:xlink="http://www.w3.org/1999/xlink" viewBox="0 0 4449.6 833.59">
  <defs>
    <style>
      .cls-1 {
        fill: #1a2452;
        stroke: #1a2452;
      }

      .cls-1, .cls-2, .cls-3 {
        fill-rule: evenodd;
        stroke-width: 30px;
      }

      .cls-1, .cls-2, .cls-3, .cls-4 {
        stroke-miterlimit: 3.25;
      }

      .cls-5 {
        fill: #fff;
      }

      .cls-6 {
        fill: none;
      }

      .cls-7 {
        fill: #e9eaec;
      }

      .cls-2 {
        fill: #d6d6d6;
        stroke: #d3d3d3;
      }

      .cls-8, .cls-9 {
        fill: #5a8eca;
      }

      .cls-3 {
        fill: #fec111;
        stroke: #fec111;
      }

      .cls-4 {
        fill: #231f20;
        stroke: #231f20;
      }

      .cls-4, .cls-9 {
        stroke-width: 9px;
      }

      .cls-9 {
        stroke: #5a8eca;
        stroke-miterlimit: 10;
      }

      .cls-10 {
        clip-path: url(#clippath);
      }
    </style>
    <clipPath id="clippath">
      <rect class="cls-6" x="131.24" width="1389.85" height="833.59"/>
    </clipPath>
  </defs>
  <rect class="cls-8" x="920.36" y="407.17" width="323.04" height="25.72" rx="12.86" ry="12.86"/>
  <rect class="cls-7" x="1255.44" y="407.17" width="278.33" height="25.72" rx="12.86" ry="12.86"/>
  <path class="cls-9" d="M3475.15,137.35c0,6.71-2.8,12.7-8.39,17.97-5.59,5.27-11.74,7.91-18.45,7.91-7.35,0-13.66-2.64-18.93-7.91s-7.91-11.26-7.91-17.97c0-7.35,2.64-13.66,7.91-18.93,5.27-5.27,11.58-7.91,18.93-7.91,6.71,0,12.86,2.64,18.45,7.91,5.59,5.27,8.39,11.58,8.39,18.93Z"/>
  <path class="cls-4" d="M1963.66,353c-1.28,1.92-2.88,2.88-4.79,2.88-2.56,0-6.31-2.16-11.26-6.47-4.96-4.31-12.15-9.11-21.57-14.38-9.43-5.27-21.33-10.14-35.7-14.62-14.38-4.47-32.11-6.71-53.2-6.71-19.81,0-37.94,3.04-54.39,9.11-16.46,6.07-30.6,14.14-42.41,24.2-11.82,10.06-21.01,21.65-27.56,34.74-6.55,13.1-9.82,26.84-9.82,41.21,0,16.94,3.99,31.08,11.98,42.41,7.98,11.34,18.45,20.93,31.39,28.75,12.94,7.83,27.71,14.46,44.33,19.89,16.61,5.44,33.55,10.78,50.8,16.05,17.25,5.27,34.18,10.87,50.8,16.77,16.61,5.92,31.39,13.34,44.33,22.28,12.94,8.95,23.4,19.89,31.39,32.83,7.98,12.94,11.98,28.99,11.98,48.16s-3.44,37.22-10.3,54.15c-6.87,16.94-16.86,31.63-29.95,44.09-13.1,12.46-29.16,22.37-48.16,29.71-19.01,7.35-40.66,11.02-64.94,11.02-16.94,0-32.03-1.36-45.29-4.07-13.26-2.72-25.56-6.47-36.9-11.26-11.34-4.79-21.89-10.7-31.63-17.73-9.75-7.02-19.41-14.86-28.99-23.48l2.88-2.88c.96-.96,1.75-1.68,2.4-2.16.64-.48,1.75-.72,3.35-.72,2.55,0,6.71,2.72,12.46,8.15,5.75,5.44,13.82,11.5,24.2,18.21,10.38,6.71,23.48,12.78,39.3,18.21,15.81,5.44,35.22,8.15,58.23,8.15s43.37-3.35,61.1-10.06c17.73-6.71,32.66-15.89,44.81-27.56,12.14-11.66,21.33-25.23,27.56-40.74,6.23-15.49,9.35-32.18,9.35-50.08s-4-33.31-11.98-45.29c-7.99-11.98-18.45-22.12-31.39-30.43-12.94-8.3-27.72-15.25-44.33-20.85-16.62-5.59-33.55-10.94-50.8-16.05-17.25-5.11-34.19-10.54-50.8-16.29-16.62-5.75-31.39-12.86-44.33-21.33-12.94-8.46-23.41-18.93-31.39-31.39-7.99-12.46-11.98-27.95-11.98-46.49,0-15.65,3.51-30.59,10.54-44.81,7.02-14.21,16.93-26.84,29.71-37.86,12.77-11.02,28.04-19.81,45.77-26.36,17.73-6.54,37.3-9.82,58.71-9.82,26.52,0,49.84,3.59,69.97,10.78s39.61,18.93,58.47,35.22l-1.92,2.88Z"/>
  <path class="cls-4" d="M2122.75,311.79v300.96c0,26.2,2.88,49.6,8.63,70.21,5.75,20.61,14.62,38.1,26.6,52.48,11.98,14.38,26.91,25.33,44.81,32.83,17.89,7.51,39.13,11.26,63.74,11.26,36.74,0,70.52-9.74,101.36-29.23,30.83-19.48,58.06-46.49,81.71-80.99v-357.51h11.5v469.65h-2.88c-4.48,0-6.71-2.55-6.71-7.67l-1.92-90.1c-11.19,15.98-23.48,30.51-36.9,43.61-13.42,13.1-27.96,24.2-43.61,33.31-15.66,9.11-32.11,16.14-49.36,21.09-17.25,4.95-34.98,7.43-53.2,7.43-52.4,0-91.38-15.49-116.93-46.49-25.56-30.99-38.34-74.28-38.34-129.87v-300.96h11.5Z"/>
  <path class="cls-4" d="M2629.79,781.44v-469.65h2.88c4.47,0,6.71,2.56,6.71,7.67l1.44,130.35c6.71-23.32,15.01-44.01,24.92-62.06,9.9-18.05,21.57-33.31,34.98-45.77,13.42-12.46,28.67-21.88,45.77-28.28,17.09-6.39,36.34-9.58,57.75-9.58,15.33,0,29.55,1.6,42.65,4.79,13.1,3.2,25.71,7.67,37.86,13.42l-1.92,3.83c-.64.96-1.2,1.84-1.68,2.64-.48.8-1.52,1.2-3.12,1.2s-4.24-.79-7.91-2.4c-3.68-1.59-8.47-3.35-14.38-5.27-5.92-1.92-13.1-3.67-21.57-5.27-8.47-1.6-18.45-2.4-29.95-2.4-41.86,0-75.72,13.74-101.6,41.21-25.88,27.48-46.33,66.46-61.34,116.93v308.63h-11.5Z"/>
  <path class="cls-4" d="M3268.13,781.44c-4.48,0-6.71-2.55-6.71-7.67l-2.88-76.2c-13.42,14.06-26.84,26.76-40.26,38.1-13.42,11.34-27.64,20.93-42.65,28.75-15.02,7.83-31.15,13.9-48.4,18.21-17.25,4.31-36.42,6.47-57.51,6.47-14.06,0-28.2-2.16-42.41-6.47-14.22-4.31-27.08-11.18-38.58-20.61-11.5-9.42-20.85-21.57-28.04-36.42s-10.78-32.99-10.78-54.39,6.15-40.02,18.45-56.79c12.3-16.77,31.15-31.07,56.55-42.89,25.4-11.82,57.43-21.16,96.09-28.04,38.65-6.87,84.5-10.94,137.54-12.22v-60.38c0-24.6-2.72-46.64-8.15-66.13-5.44-19.48-13.42-35.94-23.96-49.36-10.54-13.42-23.8-23.72-39.78-30.91-15.98-7.19-34.5-10.78-55.59-10.78-16.62,0-31.63,1.76-45.05,5.27-13.42,3.52-25.4,7.83-35.94,12.94-10.54,5.12-19.73,10.71-27.56,16.77-7.83,6.07-14.62,11.67-20.37,16.77-5.75,5.11-10.39,9.43-13.9,12.94s-6.07,5.27-7.67,5.27c-1.28,0-2.88-.96-4.79-2.88l-1.92-1.92c23-24.28,46.8-42.81,71.41-55.59,24.6-12.77,53.19-19.17,85.78-19.17,23.96,0,44.64,3.83,62.06,11.5,17.41,7.67,31.87,18.69,43.37,33.07s19.96,31.87,25.4,52.48c5.43,20.61,8.15,43.85,8.15,69.73v310.54h-1.92ZM3069.72,779.52c22.04,0,42.01-2.55,59.9-7.67,17.89-5.11,34.34-11.98,49.36-20.61,15.01-8.63,28.99-18.61,41.93-29.95,12.94-11.34,25.47-23.24,37.62-35.7v-144.73c-100.64,3.2-175.33,15.74-224.04,37.62-48.72,21.89-73.08,52.8-73.08,92.73,0,18.86,3.12,35.07,9.35,48.64,6.23,13.58,14.38,24.76,24.44,33.55,10.06,8.79,21.57,15.33,34.51,19.65,12.94,4.31,26.28,6.47,40.02,6.47Z"/>
  <rect class="cls-4" x="3442.57" y="311.79" width="11.5" height="469.65"/>
  <path class="cls-4" d="M3973.55,781.44c-4.48,0-6.71-2.55-6.71-7.67l-1.92-90.58c-21.09,31.95-46.57,57.27-76.44,75.96-29.88,18.69-62.54,28.04-98,28.04-61.03,0-107.59-19.57-139.7-58.71-32.11-39.13-48.16-99.44-48.16-180.91,0-33.86,4.31-65.66,12.94-95.37,8.63-29.71,21.57-55.51,38.82-77.4,17.25-21.88,38.74-39.13,64.46-51.76,25.71-12.62,55.67-18.93,89.86-18.93s64.7,6.87,90.58,20.61c25.88,13.74,47.76,34.98,65.66,63.74V91.34h11.5v690.1h-2.88ZM3790.48,777.61c34.82,0,67.17-9.74,97.05-29.23,29.87-19.48,55.67-46.32,77.4-80.51v-264.06c-20.77-32.9-43.78-56.15-69.01-69.73-25.24-13.58-54.32-20.37-87.22-20.37s-61.51,5.99-85.78,17.97c-24.28,11.98-44.49,28.51-60.62,49.6-16.14,21.09-28.2,45.85-36.18,74.28-7.99,28.44-11.98,59.11-11.98,92.01,0,77.96,14.93,135.79,44.81,173.48,29.87,37.7,73.72,56.55,131.55,56.55Z"/>
  <path class="cls-4" d="M4443.19,781.44c-4.48,0-6.71-2.55-6.71-7.67l-2.88-76.2c-13.42,14.06-26.84,26.76-40.26,38.1-13.42,11.34-27.64,20.93-42.65,28.75-15.02,7.83-31.15,13.9-48.4,18.21-17.25,4.31-36.42,6.47-57.51,6.47-14.06,0-28.2-2.16-42.41-6.47-14.22-4.31-27.08-11.18-38.58-20.61-11.5-9.42-20.85-21.57-28.04-36.42s-10.78-32.99-10.78-54.39,6.15-40.02,18.45-56.79c12.3-16.77,31.15-31.07,56.55-42.89,25.4-11.82,57.43-21.16,96.09-28.04,38.65-6.87,84.5-10.94,137.54-12.22v-60.38c0-24.6-2.72-46.64-8.15-66.13-5.44-19.48-13.42-35.94-23.96-49.36-10.54-13.42-23.8-23.72-39.78-30.91-15.98-7.19-34.5-10.78-55.59-10.78-16.62,0-31.63,1.76-45.05,5.27-13.42,3.52-25.4,7.83-35.94,12.94-10.54,5.12-19.73,10.71-27.56,16.77-7.83,6.07-14.62,11.67-20.37,16.77-5.75,5.11-10.39,9.43-13.9,12.94s-6.07,5.27-7.67,5.27c-1.28,0-2.88-.96-4.79-2.88l-1.92-1.92c23-24.28,46.8-42.81,71.41-55.59,24.6-12.77,53.19-19.17,85.78-19.17,23.96,0,44.64,3.83,62.06,11.5,17.41,7.67,31.87,18.69,43.37,33.07s19.96,31.87,25.4,52.48c5.43,20.61,8.15,43.85,8.15,69.73v310.54h-1.92ZM4244.78,779.52c22.04,0,42.01-2.55,59.9-7.67,17.89-5.11,34.34-11.98,49.36-20.61,15.01-8.63,28.99-18.61,41.93-29.95,12.94-11.34,25.47-23.24,37.62-35.7v-144.73c-100.64,3.2-175.33,15.74-224.04,37.62-48.72,21.89-73.08,52.8-73.08,92.73,0,18.86,3.12,35.07,9.35,48.64,6.23,13.58,14.38,24.76,24.44,33.55,10.06,8.79,21.57,15.33,34.51,19.65,12.94,4.31,26.28,6.47,40.02,6.47Z"/>
  <g>
    <circle class="cls-5" cx="1295.28" cy="420.03" r="65.27"/>
    <circle class="cls-8" cx="1295.28" cy="418.77" r="46.04"/>
  </g>
  <g class="cls-10">
    <polygon class="cls-1" points="96.9 361.39 96.9 732.55 1651.28 732.55 1651.28 732.33 1647.02 732.33 1644.87 732.31 1642.74 732.31 1638.47 732.3 1634.21 732.3 1625.67 732.28 1621.4 732.28 1619.27 732.26 1617.13 732.26 1609.49 732.24 1605.67 732.24 1603.76 732.23 1601.85 732.23 1594.2 732.2 1590.37 732.19 1587.04 732.19 1586.56 732.17 1578.35 732.15 1574.26 732.14 1571.19 732.14 1570.68 732.12 1570.17 732.12 1561.96 732.1 1557.87 732.09 1555.81 732.07 1553.78 732.07 1546.22 732.04 1542.45 732.02 1540.57 732.01 1538.67 732.01 1531.11 731.97 1527.33 731.96 1525.45 731.95 1524.5 731.95 1524.03 731.93 1523.56 731.93 1515.86 731.9 1512 731.87 1510.08 731.87 1509.11 731.86 1508.15 731.86 1500.46 731.81 1496.59 731.78 1494.67 731.78 1493.71 731.77 1492.74 731.77 1484.49 731.7 1480.37 731.68 1478.3 731.67 1477.26 731.66 1476.25 731.66 1467.99 731.59 1463.86 731.56 1461.8 731.54 1460.76 731.53 1459.73 731.53 1452.12 731.47 1448.33 731.43 1446.41 731.4 1445.46 731.4 1444.99 731.39 1444.51 731.39 1436.91 731.31 1433.1 731.28 1431.2 731.26 1430.25 731.25 1429.78 731.24 1429.3 731.24 1421.13 731.15 1414 731.06 1413.49 731.06 1412.98 731.05 1404.81 730.95 1397.68 730.86 1397.17 730.85 1396.66 730.85 1388.35 730.72 1384.18 730.66 1382.11 730.63 1381.08 730.61 1380.56 730.61 1380.04 730.59 1371.73 730.45 1367.56 730.39 1365.49 730.35 1364.45 730.33 1363.94 730.33 1363.42 730.32 1355.74 730.16 1350 730.05 1349.05 730.04 1348.55 730.02 1348.08 730.01 1340.42 729.85 1336.57 729.76 1334.66 729.72 1333.71 729.69 1333.22 729.68 1332.74 729.67 1324.52 729.47 1320.43 729.37 1318.37 729.31 1317.34 729.29 1316.83 729.27 1316.31 729.25 1308.09 729.02 1301.93 728.83 1300.4 728.8 1299.87 728.77 1292.3 728.53 1288.52 728.4 1286.63 728.34 1285.68 728.3 1284.73 728.28 1277.15 728 1271.46 727.77 1270.53 727.73 1270.06 727.72 1269.58 727.69 1261.85 727.38 1256.06 727.11 1255.09 727.08 1254.61 727.05 1254.12 727.02 1246.39 726.66 1242.53 726.47 1240.61 726.37 1239.64 726.31 1239.15 726.29 1238.68 726.27 1230.41 725.81 1226.26 725.57 1223.15 725.38 1222.64 725.36 1222.13 725.32 1213.85 724.8 1207.63 724.38 1206.62 724.3 1206.09 724.27 1205.58 724.24 1197.94 723.67 1194.12 723.38 1192.21 723.23 1190.31 723.08 1182.67 722.44 1178.86 722.1 1176.94 721.94 1175.99 721.85 1175.52 721.8 1175.04 721.76 1166.86 720.98 1162.77 720.56 1160.72 720.34 1159.71 720.23 1158.69 720.13 1150.5 719.22 1146.41 718.74 1143.35 718.36 1142.82 718.29 1142.32 718.23 1134.78 717.27 1131.02 716.75 1129.12 716.5 1128.19 716.36 1127.72 716.29 1127.24 716.22 1119.7 715.1 1115.93 714.52 1114.05 714.22 1113.1 714.07 1112.64 713.99 1112.17 713.91 1104.47 712.61 1100.62 711.93 1098.71 711.58 1097.74 711.4 1097.27 711.3 1096.78 711.21 1089.1 709.7 1085.25 708.92 1083.32 708.5 1082.37 708.3 1081.88 708.2 1081.4 708.09 1073.16 706.22 1069.04 705.24 1066.98 704.73 1065.96 704.47 1065.43 704.33 1064.92 704.21 1056.69 702.03 1052.57 700.88 1050.5 700.29 1049.48 699.98 1048.95 699.83 1048.45 699.68 1040.85 697.35 1037.04 696.11 1034.2 695.16 1033.25 694.83 1025.66 692.14 1021.86 690.72 1019.97 689.99 1019 689.62 1018.05 689.24 1009.91 685.9 1005.84 684.11 1003.8 683.2 1002.78 682.73 1002.27 682.51 1001.76 682.27 993.63 678.36 989.55 676.28 987.52 675.22 986.5 674.67 985.99 674.41 985.48 674.13 977.19 669.48 973.04 667.01 970.97 665.73 969.93 665.08 969.4 664.77 968.89 664.44 960.58 658.98 956.44 656.09 953.33 653.85 952.82 653.45 952.29 653.07 944.63 647.2 940.82 644.1 938.9 642.52 937.93 641.71 936.99 640.9 929.33 634.12 925.5 630.55 923.58 628.72 922.16 627.31 921.67 626.84 913.46 618.45 909.37 614.02 907.31 611.75 905.79 610 905.26 609.42 897.07 599.69 892.96 594.56 890.9 591.92 888.87 589.23 881.3 578.91 877.52 573.49 875.64 570.72 874.69 569.32 874.21 568.62 873.74 567.91 866.18 556.2 862.39 550.07 860.51 546.93 859.56 545.35 859.09 544.55 858.61 543.74 850.9 530.28 847.05 523.24 845.12 519.65 844.15 517.84 843.68 516.93 843.19 516.01 835.47 500.93 831.63 493.1 829.69 489.1 828.73 487.09 828.26 486.08 827.76 485.07 811.25 448.43 802.99 428.86 798.85 418.79 796.79 413.67 795.75 411.1 795.24 409.83 794.72 408.54 764.25 328.81 731.57 242.16 714.93 201.49 706.63 182.77 702.46 173.9 700.39 169.62 699.34 167.49 698.82 166.44 698.3 165.4 690.62 150.7 686.79 143.85 684.88 140.56 683.91 138.95 683.43 138.16 682.94 137.36 675.26 125.49 671.43 120.13 669.52 117.58 668.55 116.34 668.08 115.73 667.59 115.13 663.48 110.2 661.42 107.91 660.4 106.8 659.89 106.27 659.37 105.72 655.25 101.69 653.2 99.83 652.18 98.94 651.65 98.51 651.14 98.08 647.03 94.9 644.98 93.48 643.94 92.81 643.43 92.47 642.92 92.16 640.87 90.93 639.83 90.36 639.32 90.1 638.81 89.82 636.75 88.81 635.72 88.34 635.21 88.11 634.7 87.89 632.8 87.14 631.85 86.79 631.38 86.62 629.48 86.01 629.01 85.87 628.06 85.6 627.11 85.35 626.16 85.14 625.69 85.02 625.21 84.92 624.26 84.73 623.79 84.64 622.36 84.41 620.94 84.22 619.99 84.12 619.53 84.09 619.06 84.04 618.59 84.01 618.11 83.97 617.16 83.92 615.74 83.88 614.32 83.88 612.9 83.92 611.47 84 610.05 84.11 608.63 84.26 607.2 84.45 605.3 84.76 604.36 84.93 602.34 85.36 601.32 85.6 600.3 85.86 598.26 86.41 597.24 86.72 596.22 87.05 594.2 87.73 593.18 88.1 592.16 88.48 590.12 89.29 589.11 89.7 588.6 89.92 588.11 90.15 584.03 92.03 581.99 93.04 580.99 93.58 579.97 94.11 575.89 96.38 573.87 97.59 572.85 98.2 571.84 98.83 563.54 104.28 559.42 107.23 557.34 108.74 556.31 109.51 555.78 109.9 555.27 110.29 546.99 116.73 542.85 120.1 540.78 121.81 539.74 122.67 539.23 123.11 538.7 123.54 508.13 150.42 475.39 179.85 445.18 205.7 414.4 229.92 381.41 253.13 350.98 272.01 318.37 289.74 285.15 305.39 254.49 317.93 221.66 329.62 191.37 338.99 160.5 347.35 127.41 355.13 112.17 358.36 104.53 359.89 100.71 360.65 98.81 361.02 97.85 361.2 97.37 361.3 96.9 361.39"/>
    <polygon class="cls-3" points="64.21 469.19 64.21 757.79 1618.6 757.79 1618.6 757.56 1614.33 757.56 1612.19 757.55 1610.06 757.55 1605.79 757.54 1601.52 757.54 1592.98 757.51 1588.71 757.51 1586.59 757.5 1584.45 757.5 1576.8 757.47 1572.99 757.47 1571.07 757.46 1569.16 757.46 1561.52 757.43 1557.69 757.42 1554.35 757.42 1553.87 757.41 1545.67 757.38 1541.58 757.37 1538.5 757.37 1537.99 757.36 1537.49 757.36 1529.28 757.33 1525.18 757.32 1523.13 757.31 1521.09 757.31 1513.54 757.27 1509.76 757.26 1507.88 757.24 1505.98 757.24 1498.43 757.21 1494.65 757.19 1492.77 757.18 1491.82 757.18 1491.35 757.17 1490.87 757.17 1483.18 757.13 1479.31 757.1 1477.4 757.1 1476.43 757.09 1475.47 757.09 1467.77 757.04 1463.9 757.02 1461.99 757.02 1461.03 757 1460.06 757 1451.8 756.94 1447.69 756.92 1445.62 756.9 1444.58 756.89 1443.56 756.89 1435.3 756.83 1431.18 756.79 1429.12 756.78 1428.08 756.76 1427.05 756.76 1419.44 756.7 1415.65 756.66 1413.73 756.65 1412.78 756.64 1412.31 756.64 1411.83 756.62 1404.23 756.55 1400.41 756.51 1398.51 756.5 1397.56 756.49 1397.09 756.49 1396.62 756.47 1388.45 756.39 1384.37 756.33 1382.34 756.32 1381.31 756.31 1380.81 756.29 1380.29 756.29 1372.13 756.19 1368.05 756.13 1364.99 756.09 1364.48 756.08 1363.98 756.08 1355.66 755.95 1351.5 755.9 1349.43 755.86 1348.39 755.85 1347.88 755.84 1347.35 755.83 1339.05 755.7 1334.88 755.62 1332.81 755.59 1331.77 755.58 1331.26 755.56 1330.73 755.55 1323.06 755.41 1317.31 755.3 1316.36 755.27 1315.87 755.26 1315.4 755.26 1307.74 755.09 1303.89 755.01 1301.97 754.95 1301.02 754.94 1300.53 754.93 1300.06 754.91 1291.83 754.71 1287.74 754.61 1285.69 754.55 1284.65 754.52 1283.63 754.5 1275.41 754.27 1269.24 754.08 1267.71 754.04 1267.19 754.02 1259.61 753.78 1255.84 753.65 1253.94 753.59 1252.99 753.55 1252.04 753.52 1244.47 753.25 1240.67 753.09 1238.78 753.03 1237.85 752.99 1237.37 752.97 1236.9 752.95 1225.3 752.46 1223.37 752.37 1222.4 752.34 1221.93 752.31 1221.44 752.28 1213.71 751.92 1209.84 751.73 1207.93 751.63 1206.96 751.57 1206.47 751.55 1206 751.53 1197.72 751.08 1193.58 750.84 1191.5 750.72 1190.46 750.66 1189.95 750.63 1189.45 750.6 1181.17 750.08 1174.95 749.66 1173.93 749.59 1173.4 749.56 1172.9 749.52 1165.25 748.97 1161.44 748.68 1159.52 748.54 1157.63 748.39 1149.98 747.76 1146.17 747.42 1144.26 747.25 1143.31 747.17 1142.84 747.12 1142.36 747.08 1134.18 746.31 1130.08 745.89 1127.02 745.59 1126.52 745.53 1126 745.47 1117.82 744.59 1113.72 744.11 1111.69 743.87 1110.67 743.74 1110.14 743.69 1109.63 743.63 1102.09 742.68 1098.33 742.17 1096.44 741.92 1095.5 741.79 1095.03 741.73 1094.56 741.66 1087.02 740.58 1083.24 740.01 1081.36 739.72 1080.42 739.57 1079.96 739.49 1079.48 739.41 1071.79 738.15 1067.94 737.48 1066.02 737.14 1065.06 736.96 1064.58 736.87 1064.09 736.8 1056.42 735.34 1052.57 734.57 1050.64 734.18 1049.69 733.97 1049.19 733.87 1048.72 733.77 1040.48 731.99 1036.35 731.04 1034.3 730.54 1033.28 730.3 1032.75 730.18 1032.24 730.05 1024 727.98 1019.89 726.87 1017.82 726.3 1016.8 726.02 1016.27 725.88 1015.76 725.74 1008.17 723.51 1004.36 722.35 1002.46 721.75 1000.56 721.14 992.97 718.6 989.18 717.26 987.28 716.58 986.32 716.23 985.37 715.88 977.23 712.75 973.16 711.09 971.12 710.25 969.08 709.39 960.94 705.77 956.87 703.86 954.83 702.88 953.81 702.39 952.8 701.88 944.5 697.63 940.35 695.39 938.28 694.24 937.25 693.66 936.72 693.37 936.21 693.06 927.9 688.17 923.75 685.57 921.68 684.26 920.64 683.57 920.13 683.24 919.61 682.9 911.95 677.71 908.13 674.99 906.22 673.59 905.25 672.89 904.3 672.18 896.64 666.3 892.81 663.21 890.9 661.64 889.95 660.84 889.48 660.44 888.98 660.05 880.78 652.91 876.69 649.18 874.63 647.27 873.61 646.31 873.1 645.81 872.58 645.33 864.39 637.27 860.27 633.06 858.22 630.91 856.18 628.73 841.06 611.69 833.5 602.53 829.7 597.8 827.82 595.4 825.93 592.97 795.08 549.95 762.03 498.52 731.57 449.88 715.23 424.99 707.06 413.18 702.98 407.48 700.93 404.68 699.91 403.3 699.4 402.6 698.89 401.92 682.25 380.98 673.94 371.65 669.78 367.3 667.7 365.2 666.65 364.17 666.14 363.67 665.61 363.16 657.94 356.09 654.1 352.83 652.19 351.29 651.23 350.53 650.75 350.15 650.26 349.78 646.43 346.91 644.51 345.54 643.55 344.89 643.07 344.56 642.58 344.24 638.75 341.75 636.84 340.58 635.87 340.01 635.39 339.74 634.9 339.46 630.79 337.21 628.74 336.16 627.21 335.4 626.68 335.16 622.57 333.32 620.52 332.49 619.49 332.08 618.97 331.89 618.46 331.7 614.35 330.27 612.29 329.63 611.26 329.32 610.75 329.19 610.24 329.03 608.18 328.49 607.14 328.24 606.64 328.11 606.13 327.99 604.07 327.54 603.03 327.32 602.01 327.12 600.12 326.79 598.22 326.49 597.27 326.35 596.32 326.22 595.37 326.11 594.9 326.05 593 325.84 592.53 325.81 591.58 325.72 590.63 325.64 589.68 325.58 588.73 325.53 588.26 325.49 587.78 325.48 587.31 325.45 586.85 325.42 584.01 325.35 583.53 325.35 583.06 325.34 581.63 325.34 581.16 325.35 580.68 325.35 579.74 325.38 579.26 325.38 578.79 325.4 577.84 325.42 577.37 325.45 576.89 325.46 574.52 325.59 573.57 325.67 572.62 325.73 571.67 325.81 569.65 325.99 568.64 326.11 568.12 326.16 567.61 326.22 566.59 326.34 566.09 326.4 565.58 326.48 564.56 326.6 563.54 326.76 561.52 327.06 560.5 327.22 559.99 327.3 559.48 327.39 557.44 327.75 556.42 327.93 555.91 328.03 555.42 328.13 551.35 328.98 549.31 329.44 548.31 329.66 547.8 329.79 547.29 329.9 543.21 330.93 541.19 331.48 539.15 332.03 530.86 334.5 526.73 335.84 524.66 336.54 523.62 336.88 523.1 337.05 522.58 337.24 514.31 340.19 510.17 341.74 508.09 342.53 507.05 342.93 506.55 343.13 506.02 343.33 490.73 349.49 483.09 352.69 479.28 354.31 477.37 355.14 476.42 355.54 475.94 355.76 475.45 355.96 442.7 370.21 412.5 383.1 381.72 395.52 348.72 407.73 318.29 417.9 285.69 427.66 252.47 436.44 221.81 443.59 188.97 450.35 158.68 455.82 127.82 460.77 94.73 465.42 79.48 467.37 71.84 468.29 68.03 468.75 66.13 468.96 65.16 469.07 64.69 469.14 64.21 469.19"/>
    <polygon class="cls-2" points="15 543.96 15 780.04 1569.39 780.04 1569.39 779.82 1565.12 779.82 1562.97 779.8 1560.84 779.8 1556.58 779.79 1552.31 779.79 1543.77 779.76 1539.5 779.76 1537.38 779.75 1535.23 779.75 1527.59 779.73 1523.78 779.73 1521.86 779.71 1519.95 779.71 1512.3 779.69 1508.47 779.68 1505.14 779.68 1504.66 779.66 1496.46 779.64 1492.36 779.62 1489.29 779.62 1488.78 779.61 1488.27 779.61 1480.06 779.59 1475.97 779.58 1473.91 779.56 1471.88 779.56 1464.32 779.52 1460.55 779.51 1458.67 779.5 1456.77 779.5 1449.21 779.46 1445.44 779.45 1443.56 779.44 1442.61 779.44 1442.13 779.42 1441.66 779.42 1433.96 779.38 1430.1 779.37 1428.18 779.36 1427.22 779.35 1426.25 779.35 1418.56 779.3 1414.69 779.28 1412.77 779.27 1411.81 779.26 1410.84 779.26 1402.59 779.19 1398.48 779.17 1396.4 779.16 1395.36 779.14 1394.35 779.14 1386.09 779.08 1381.96 779.04 1379.91 779.03 1378.87 779.02 1377.83 779.02 1370.23 778.95 1366.43 778.92 1364.51 778.91 1363.57 778.89 1363.09 778.89 1362.62 778.88 1355.01 778.8 1351.2 778.77 1349.3 778.75 1348.35 778.74 1347.88 778.74 1347.4 778.73 1339.23 778.64 1335.16 778.6 1332.1 778.56 1331.59 778.55 1331.08 778.55 1322.91 778.45 1318.84 778.38 1315.78 778.35 1315.27 778.35 1314.76 778.33 1306.45 778.22 1302.29 778.16 1300.21 778.12 1299.18 778.11 1298.67 778.1 1298.14 778.1 1289.83 777.96 1285.67 777.88 1283.59 777.84 1282.55 777.83 1282.05 777.82 1281.52 777.8 1273.84 777.66 1268.1 777.55 1267.15 777.53 1266.66 777.53 1266.18 777.51 1258.52 777.35 1254.67 777.26 1252.76 777.22 1251.81 777.19 1251.32 777.18 1250.85 777.17 1242.62 776.98 1238.53 776.87 1236.47 776.82 1235.44 776.79 1234.42 776.76 1226.2 776.54 1220.03 776.35 1219.01 776.32 1218.5 776.3 1217.97 776.28 1210.4 776.04 1206.63 775.92 1204.73 775.85 1203.78 775.82 1202.83 775.79 1195.26 775.51 1191.46 775.37 1189.57 775.3 1188.64 775.26 1188.16 775.23 1187.69 775.22 1179.96 774.9 1176.09 774.74 1174.16 774.65 1173.19 774.6 1172.71 774.59 1172.22 774.56 1164.49 774.2 1160.63 774.01 1158.71 773.91 1157.75 773.87 1157.26 773.84 1156.78 773.82 1148.51 773.36 1144.36 773.13 1142.29 773.01 1141.25 772.96 1140.74 772.92 1140.23 772.89 1131.96 772.37 1127.81 772.11 1125.74 771.97 1124.72 771.9 1124.19 771.87 1123.68 771.83 1116.04 771.29 1112.23 770.99 1110.31 770.86 1108.42 770.7 1100.77 770.08 1096.96 769.75 1095.04 769.59 1094.1 769.5 1093.15 769.43 1084.96 768.67 1080.87 768.26 1077.81 767.96 1077.3 767.89 1076.79 767.85 1068.6 766.97 1064.51 766.51 1062.47 766.27 1061.45 766.15 1060.93 766.1 1060.42 766.03 1052.88 765.1 1049.12 764.62 1047.22 764.36 1046.29 764.24 1045.34 764.11 1037.8 763.06 1034.03 762.5 1032.15 762.21 1031.2 762.07 1030.74 762 1030.27 761.92 1022.57 760.7 1018.72 760.05 1016.81 759.72 1015.85 759.54 1015.37 759.47 1014.88 759.38 1007.2 757.98 1003.35 757.23 1001.42 756.85 1000.47 756.66 999.98 756.57 999.51 756.47 991.27 754.74 987.14 753.82 985.08 753.37 984.06 753.13 983.54 753 983.03 752.89 974.79 750.9 970.68 749.85 968.6 749.31 967.58 749.03 967.06 748.9 966.55 748.76 958.96 746.65 955.14 745.55 953.25 744.98 952.3 744.69 951.82 744.55 951.35 744.4 943.76 742 939.96 740.74 938.07 740.09 937.1 739.77 936.62 739.61 936.15 739.44 928.02 736.51 923.94 734.97 921.9 734.18 919.87 733.37 911.73 730.04 907.66 728.26 905.62 727.36 903.58 726.45 895.29 722.56 891.14 720.5 889.07 719.46 888.03 718.94 887.5 718.66 886.99 718.39 878.68 713.96 874.54 711.64 871.43 709.85 870.92 709.55 870.39 709.24 862.73 704.62 858.92 702.21 857 700.98 856.04 700.36 855.09 699.73 847.43 694.58 843.6 691.89 841.68 690.53 840.74 689.84 840.26 689.49 839.77 689.15 823.36 676.56 815.17 669.76 811.06 666.26 809.01 664.46 807.99 663.56 807.48 663.11 806.97 662.66 776.72 633.8 745.86 600.9 712.82 563.96 682.35 531.19 666.01 515.18 657.84 507.76 653.77 504.21 651.71 502.48 650.69 501.63 650.19 501.2 649.68 500.78 641.37 494.15 637.2 491.02 635.13 489.52 634.07 488.77 633.56 488.41 633.04 488.04 624.73 482.47 620.56 479.89 618.49 478.65 617.44 478.06 616.93 477.75 616.4 477.45 608.72 473.32 604.89 471.42 602.98 470.52 602.01 470.08 601.53 469.87 601.04 469.65 597.21 467.99 595.3 467.21 594.33 466.83 593.86 466.64 593.37 466.45 589.53 465.02 587.62 464.35 586.66 464.03 586.18 463.87 585.69 463.72 581.58 462.43 579.52 461.83 578.5 461.54 577.99 461.4 577.47 461.26 573.36 460.23 571.3 459.74 570.28 459.52 569.75 459.4 569.25 459.3 565.14 458.49 563.08 458.12 562.04 457.95 561.02 457.8 558.97 457.48 557.93 457.34 557.42 457.27 556.91 457.2 554.85 456.95 553.82 456.82 553.31 456.77 552.8 456.71 550.9 456.52 549.96 456.44 549.48 456.39 547.11 456.2 546.16 456.14 545.68 456.11 545.21 456.07 541.89 455.9 541.41 455.89 540.47 455.85 539.99 455.82 538.1 455.77 537.64 455.76 536.69 455.73 536.22 455.73 535.74 455.72 534.79 455.72 534.32 455.71 531.95 455.71 531.47 455.72 530.52 455.72 530.05 455.73 529.57 455.73 525.3 455.85 524.83 455.87 524.36 455.89 523.41 455.92 522.46 455.97 520.44 456.07 519.42 456.14 518.91 456.18 518.4 456.2 517.38 456.26 514.83 456.46 514.33 456.5 512.31 456.67 511.29 456.77 510.78 456.81 508.23 457.06 507.21 457.17 506.7 457.23 506.21 457.28 502.13 457.76 500.1 458.01 499.09 458.15 498.58 458.21 498.07 458.29 494 458.86 491.98 459.17 490.45 459.4 489.94 459.49 481.65 460.88 477.52 461.65 475.44 462.05 474.41 462.25 473.88 462.35 473.37 462.45 465.09 464.14 460.95 465.02 457.84 465.7 457.33 465.82 456.81 465.93 449.16 467.68 445.35 468.58 443.43 469.03 442.49 469.26 441.99 469.37 441.52 469.49 433.88 471.33 430.06 472.28 428.15 472.77 427.2 473.01 426.73 473.12 426.24 473.25 393.49 481.61 363.29 489.32 332.5 496.84 299.51 504.36 269.08 510.72 236.47 516.88 203.25 522.48 172.59 527.1 139.76 531.51 109.47 535.1 78.6 538.36 45.52 541.45 30.27 542.74 22.63 543.36 18.81 543.66 16.92 543.82 15.95 543.88 15 543.96"/>
  </g>
  <rect class="cls-8" x="920.36" y="196.51" width="323.04" height="25.72" rx="12.86" ry="12.86"/>
  <rect class="cls-7" x="1255.44" y="196.51" width="278.33" height="25.72" rx="12.86" ry="12.86"/>
  <g>
    <circle class="cls-5" cx="1243.4" cy="211.02" r="65.27"/>
    <circle class="cls-8" cx="1243.4" cy="209.76" r="46.04"/>
  </g>
</svg>